<?xml version="1.0" encoding="utf-8"?>
<!-- Generator: Adobe Illustrator 24.1.0, SVG Export Plug-In . SVG Version: 6.00 Build 0)  -->
<svg version="1.1" id="Layer_1" xmlns="http://www.w3.org/2000/svg" xmlns:xlink="http://www.w3.org/1999/xlink" x="0px" y="0px"
	 viewBox="0 0 60 60" style="enable-background:new 0 0 60 60;" xml:space="preserve">
<style type="text/css">
	.st0{fill:#336791;}
	.st1{fill:#FFFFFF;}
</style>
<g>
	<path d="M49.2,33.9c-0.2-0.7-0.8-1.2-1.6-1.3c-0.4-0.1-0.8,0-1.3,0.1c-0.9,0.2-1.5,0.2-2,0.3c1.8-3,3.2-6.5,4.1-9.7
		c1.4-5.3,0.6-7.6-0.2-8.7c-2.2-2.9-5.5-4.4-9.5-4.5c-2.1,0-4,0.4-4.9,0.7c-0.9-0.2-1.9-0.2-2.9-0.3c-1.9,0-3.6,0.4-5,1.2
		c-0.8-0.3-2.1-0.6-3.5-0.9c-3.5-0.6-6.2-0.1-8.3,1.3c-2.5,1.7-3.6,4.8-3.4,9c0.1,1.3,0.8,5.4,2,9.3c0.7,2.2,1.4,4.1,2.2,5.5
		c1.1,2,2.2,3.2,3.5,3.6c0.7,0.2,2,0.4,3.4-0.7c0.2,0.2,0.4,0.4,0.7,0.6c0.4,0.2,0.9,0.4,1.3,0.6c1.7,0.4,3.3,0.3,4.7-0.3
		c0,0.2,0,0.5,0,0.7c0,0.3,0,0.6,0,0.9c0.1,2,0.2,3.6,0.6,4.7c0,0.1,0.1,0.2,0.1,0.3c0.2,0.6,0.5,1.7,1.4,2.5c0.9,0.8,2,1.1,3,1.1
		c0.5,0,1-0.1,1.4-0.2c1.5-0.3,3.2-0.8,4.4-2.5c1.2-1.6,1.7-4.1,1.8-8c0-0.1,0-0.2,0-0.3l0-0.2l0.3,0l0.1,0c1.5,0.1,3.4-0.3,4.5-0.8
		C47,37.5,49.9,36,49.2,33.9"/>
	<path class="st0" d="M46.6,34.3c-4.5,0.9-4.8-0.6-4.8-0.6c4.8-7.1,6.7-16,5-18.2c-4.7-6-12.8-3.2-12.9-3.1l0,0
		c-0.9-0.2-1.9-0.3-3-0.3c-2,0-3.6,0.5-4.8,1.4c0,0-14.4-6-13.8,7.5c0.1,2.9,4.1,21.6,8.8,16c1.7-2.1,3.4-3.8,3.4-3.8
		c0.8,0.5,1.8,0.8,2.9,0.7l0.1-0.1c0,0.3,0,0.5,0,0.8c-1.2,1.4-0.9,1.6-3.3,2.1c-2.5,0.5-1,1.4-0.1,1.6c1.1,0.3,3.8,0.7,5.6-1.8
		l-0.1,0.3c0.5,0.4,0.8,2.5,0.8,4.4c-0.1,1.9-0.1,3.2,0.3,4.2c0.4,1,0.7,3.3,3.9,2.6c2.7-0.6,4.1-2.1,4.2-4.5
		c0.1-1.8,0.4-1.5,0.5-3.1l0.2-0.7c0.3-2.4,0-3.2,1.7-2.8l0.4,0c1.2,0.1,2.8-0.2,3.7-0.6C47.4,35.5,48.6,33.9,46.6,34.3L46.6,34.3"
		/>
	<path class="st1" d="M27,22.4c-0.4-0.1-0.8,0-1,0.1c-0.1,0.1-0.1,0.2-0.1,0.2c0,0.2,0.1,0.4,0.2,0.4c0.2,0.3,0.5,0.5,0.8,0.5
		c0,0,0.1,0,0.1,0c0.5,0,0.9-0.4,1-0.7C28,22.7,27.5,22.4,27,22.4 M40.4,22.4c0-0.3-0.5-0.4-1-0.3c-0.5,0.1-0.9,0.3-0.9,0.6
		c0,0.2,0.4,0.6,0.9,0.6c0,0,0.1,0,0.1,0c0.3,0,0.5-0.2,0.6-0.4C40.3,22.7,40.4,22.5,40.4,22.4"/>
	<path class="st1" d="M48.1,34.2c-0.2-0.5-0.7-0.7-1.6-0.5c-2.7,0.6-3.7,0.2-4-0.1c2.1-3.2,3.9-7.1,4.8-10.8
		c0.4-1.7,0.7-3.3,0.7-4.6c0-1.4-0.2-2.5-0.7-3.1c-2-2.6-5-4-8.6-4c-2.5,0-4.6,0.6-5,0.8c-0.9-0.2-1.8-0.3-2.8-0.4
		c-1.9,0-3.5,0.4-4.8,1.3c-0.6-0.2-2.1-0.7-3.9-1c-3.2-0.5-5.7-0.1-7.5,1.1c-2.1,1.5-3.1,4.2-2.9,8c0.1,1.3,0.8,5.2,2,9
		c1.5,5,3.2,7.8,4.9,8.4c0.2,0.1,0.4,0.1,0.7,0.1c0.6,0,1.4-0.3,2.2-1.3c1-1.2,2-2.3,3.1-3.5c0.7,0.4,1.4,0.6,2.2,0.6c0,0,0,0,0,0.1
		c-0.1,0.2-0.3,0.3-0.4,0.5c-0.5,0.7-0.6,0.8-2.4,1.2c-0.5,0.1-1.8,0.4-1.8,1.3c0,1,1.5,1.4,1.7,1.5c0.6,0.2,1.2,0.2,1.8,0.2
		c1.4,0,2.6-0.5,3.6-1.3c0,3.5,0.1,7,0.5,8.1c0.3,0.9,1.2,3,3.9,3c0.4,0,0.8,0,1.3-0.1c2.8-0.6,4-1.8,4.5-4.6
		c0.3-1.5,0.7-4.9,0.9-6.8c0.4,0.1,1,0.2,1.6,0.2c1.2,0,2.7-0.3,3.6-0.7C46.6,36.4,48.5,35.2,48.1,34.2L48.1,34.2z M41.5,21.6
		c0,0.6-0.1,1.1-0.2,1.6c-0.1,0.6-0.2,1.1-0.2,1.9c0,0.7,0.1,1.4,0.1,2.1c0.2,1.4,0.3,2.8-0.3,4.3c-0.1-0.2-0.2-0.4-0.3-0.6
		c-0.1-0.2-0.3-0.5-0.5-1c-1-1.7-3.2-5.8-2.1-7.5C38.4,21.8,39.3,21.3,41.5,21.6L41.5,21.6z M38.8,12.2c3.2,0.1,5.8,1.3,7.6,3.6
		c1.4,1.8-0.1,9.8-4.6,16.8c0-0.1-0.1-0.1-0.1-0.2l-0.1-0.1c1.1-1.9,0.9-3.8,0.7-5.4c-0.1-0.7-0.2-1.3-0.1-1.9
		c0-0.6,0.1-1.2,0.2-1.7c0.1-0.7,0.2-1.3,0.2-2.1c0-0.1,0-0.2,0-0.3c-0.1-0.8-0.9-3-2.7-5.1c-1-1.1-2.4-2.4-4.3-3.3
		C36.4,12.4,37.5,12.2,38.8,12.2L38.8,12.2z M20.7,36.6c-0.9,1.1-1.5,0.9-1.7,0.8c-1.3-0.4-2.9-3.2-4.2-7.7
		c-1.2-3.8-1.9-7.7-1.9-8.8c-0.2-3.4,0.7-5.8,2.5-7.1c2.9-2.1,7.8-0.8,9.7-0.2c0,0-0.1,0.1-0.1,0.1c-3.2,3.2-3.1,8.7-3.1,9
		c0,0.1,0,0.3,0,0.6c0.1,0.9,0.2,2.6-0.1,4.6c-0.3,1.8,0.3,3.6,1.5,4.9c0.1,0.1,0.3,0.3,0.4,0.4C23.2,33.8,22,35.1,20.7,36.6
		L20.7,36.6z M24.1,32.1c-1-1-1.4-2.5-1.2-3.9c0.3-2.1,0.2-3.9,0.1-4.8c0-0.1,0-0.3,0-0.3c0.5-0.4,2.6-1.6,4.2-1.2
		c0.7,0.2,1.1,0.6,1.3,1.5c0.9,4.3,0.1,6-0.5,7.5c-0.1,0.3-0.3,0.6-0.4,0.9l-0.1,0.2c-0.2,0.6-0.4,1.1-0.5,1.6
		C25.9,33.3,24.9,32.9,24.1,32.1L24.1,32.1z M24.3,37.8c-0.3-0.1-0.6-0.2-0.7-0.3c0.1-0.1,0.4-0.2,0.8-0.2c2-0.4,2.3-0.7,3-1.6
		c0.2-0.2,0.3-0.4,0.6-0.7l0,0c0.4-0.4,0.5-0.3,0.8-0.2c0.2,0.1,0.5,0.4,0.6,0.7c0,0.2,0.1,0.5-0.1,0.7
		C27.8,38.2,25.8,38.2,24.3,37.8z M34.8,47.7c-2.5,0.5-3.3-0.7-3.9-2.2c-0.4-0.9-0.6-5.1-0.4-9.8c0-0.1,0-0.1,0-0.2
		c0-0.1,0-0.2-0.1-0.3c-0.2-0.7-0.7-1.2-1.2-1.5c-0.2-0.1-0.6-0.3-1.1-0.1c0.1-0.4,0.3-0.9,0.5-1.5l0.1-0.2c0.1-0.3,0.2-0.5,0.3-0.8
		c0.7-1.5,1.6-3.5,0.6-8.1c-0.4-1.7-1.6-2.6-3.5-2.4c-1.1,0.1-2.2,0.6-2.7,0.8c-0.1,0.1-0.2,0.1-0.3,0.2c0.1-1.7,0.7-5,2.7-7.1
		c1.3-1.3,3-1.9,5.1-1.9c4.1,0.1,6.7,2.2,8.2,3.9c1.3,1.5,2,3,2.3,3.9c-2.1-0.2-3.5,0.2-4.2,1.2c-1.6,2.2,0.9,6.6,2,8.6
		c0.2,0.4,0.4,0.7,0.5,0.9c0.4,0.9,0.9,1.5,1.2,2c0.1,0.1,0.2,0.3,0.3,0.4c-0.6,0.2-1.8,0.6-1.7,2.7c-0.1,1.1-0.7,6-1,7.7
		C38.1,46.3,37.2,47.1,34.8,47.7L34.8,47.7z M45.2,35.9c-0.6,0.3-1.7,0.5-2.7,0.6c-1.1,0.1-1.7-0.1-1.8-0.2
		c-0.1-1.3,0.4-1.4,0.9-1.6c0.1,0,0.2,0,0.2-0.1c0,0,0.1,0.1,0.2,0.1c0.9,0.6,2.5,0.7,4.8,0.2l0,0C46.4,35.1,45.9,35.5,45.2,35.9
		L45.2,35.9z"/>
</g>
</svg>
